<?xml version="1.0" standalone="no"?>
<!DOCTYPE svg PUBLIC "-//W3C//DTD SVG 20010904//EN"
 "http://www.w3.org/TR/2001/REC-SVG-20010904/DTD/svg10.dtd">
<svg version="1.0" xmlns="http://www.w3.org/2000/svg"
 viewBox="220 173 642 642"
 preserveAspectRatio="xMidYMid meet">

<g transform="translate(0.000000,1024.000000) scale(0.100000,-0.100000)"
fill="#000000" stroke="none">
<path d="M4235 7543 c-230 -19 -520 -98 -735 -200 -231 -109 -427 -248 -615
-437 -412 -413 -634 -932 -661 -1546 -16 -361 69 -767 231 -1094 116 -236 259
-430 457 -622 326 -315 705 -503 1183 -586 115 -20 163 -23 415 -23 307 1 403
11 650 71 572 140 1102 459 1458 878 109 128 113 135 62 97 -479 -353 -1018
-566 -1660 -658 -178 -25 -653 -25 -790 0 -432 80 -753 239 -1044 517 -362
346 -566 828 -566 1340 0 755 448 1435 1132 1718 355 147 755 174 1127 76 167
-44 395 -148 540 -247 145 -98 334 -283 441 -431 l64 -88 31 34 c215 242 245
279 238 292 -25 43 -189 229 -272 308 -351 333 -784 536 -1261 594 -104 12
-322 16 -425 7z"/>
<path d="M7704 7330 c-62 -13 -104 -33 -162 -79 -138 -110 -185 -285 -121
-457 31 -82 130 -181 214 -213 204 -79 413 5 506 203 136 290 -120 609 -437
546z"/>
<path d="M4294 6740 c-252 -22 -516 -128 -729 -295 -352 -275 -565 -714 -565
-1167 0 -397 131 -722 409 -1012 280 -291 650 -455 1086 -481 121 -8 399 8
570 31 260 36 539 114 768 215 347 153 651 413 869 742 l79 120 -81 38 c-95
45 -172 117 -209 197 l-24 52 -48 -89 c-213 -404 -489 -635 -934 -783 -106
-35 -386 -86 -539 -99 -186 -15 -544 -6 -636 15 -88 20 -231 71 -310 111 -192
97 -374 286 -471 490 -85 180 -114 318 -107 507 12 275 124 526 321 715 135
129 279 210 452 255 75 19 116 23 245 23 164 0 252 -16 375 -67 161 -67 334
-209 435 -354 155 -223 224 -542 162 -740 -43 -138 -158 -225 -322 -244 -107
-12 -743 -13 -738 -1 2 5 100 121 219 257 118 137 257 297 307 356 l92 106 0
101 0 101 -520 0 -520 0 0 -130 0 -130 299 -2 298 -3 -160 -185 c-88 -102
-226 -261 -308 -355 l-148 -170 -1 -108 0 -109 633 5 c671 5 698 7 846 57 215
72 362 203 421 375 51 150 47 336 -15 583 -59 233 -181 454 -348 628 -149 157
-301 263 -488 343 -195 82 -442 120 -665 101z"/>
<path d="M6504 6733 c-12 -2 -40 -20 -63 -40 -46 -38 -433 -485 -475 -547 -30
-45 -34 -92 -9 -143 25 -54 66 -75 137 -70 58 3 59 4 125 73 36 38 136 152
221 252 154 183 155 184 190 179 69 -11 445 -79 448 -82 2 -2 -64 -126 -146
-276 -237 -436 -321 -594 -338 -641 -22 -58 -22 -161 -1 -224 36 -104 123
-167 297 -212 41 -11 175 -47 296 -81 122 -34 225 -61 228 -61 16 0 -7 -37
-189 -315 -154 -236 -196 -307 -201 -342 -19 -126 92 -238 214 -217 76 13 105
43 249 262 74 114 149 227 166 252 70 104 210 326 228 361 40 79 16 196 -51
252 -44 38 -73 49 -294 112 -341 97 -428 123 -433 129 -5 5 88 182 215 406 36
63 85 153 110 200 25 47 48 88 52 93 3 4 34 -32 68 -80 124 -178 238 -327 263
-346 37 -27 106 -33 153 -13 20 8 170 103 331 210 318 211 328 220 329 307 0
102 -107 169 -197 123 -18 -9 -131 -82 -251 -161 -121 -80 -224 -147 -231
-149 -7 -3 -20 8 -30 23 -83 129 -340 486 -378 525 -27 27 -72 62 -100 78 -85
49 -133 59 -577 130 -237 37 -303 44 -356 33z"/>
<path d="M6579 6218 c-41 -46 -117 -132 -168 -193 -113 -134 -152 -170 -213
-201 -53 -27 -54 -30 -34 -100 51 -173 71 -481 42 -654 -8 -52 -13 -96 -11
-98 10 -10 84 127 224 409 82 167 220 432 305 588 86 157 156 288 156 291 0 4
-42 13 -92 19 -51 7 -102 15 -114 17 -16 4 -37 -13 -95 -78z"/>
</g>
</svg>
